<svg width="286" height="63" viewBox="0 0 286 63" fill="none" xmlns="http://www.w3.org/2000/svg">
<g filter="url(#filter0_d)">
<ellipse cx="107.5" cy="27.5" rx="29.5" ry="27.5" fill="#E76F00"/>
</g>
<line x1="12.0567" y1="13.0575" x2="74.0575" y2="13.9433" stroke="#4D4F57" stroke-width="8" stroke-linecap="round" stroke-linejoin="round"/>
<line x1="138" y1="55" x2="153" y2="55" stroke="white" stroke-width="2" stroke-linecap="round" stroke-linejoin="round"/>
<line x1="4.05673" y1="27.0575" x2="66.0575" y2="27.9433" stroke="#4D4F57" stroke-width="8" stroke-linecap="round" stroke-linejoin="round"/>
<line x1="12.0567" y1="41.0575" x2="74.0575" y2="41.9433" stroke="#4D4F57" stroke-width="8" stroke-linecap="round" stroke-linejoin="round"/>
<path d="M164.76 22.6309H160.559V32H155.285V6.40625H164.795C167.818 6.40625 170.15 7.08008 171.791 8.42773C173.432 9.77539 174.252 11.6797 174.252 14.1406C174.252 15.8867 173.871 17.3457 173.109 18.5176C172.359 19.6777 171.217 20.6035 169.682 21.2949L175.219 31.7539V32H169.559L164.76 22.6309ZM160.559 18.3594H164.812C166.137 18.3594 167.162 18.0254 167.889 17.3574C168.615 16.6777 168.979 15.7461 168.979 14.5625C168.979 13.3555 168.633 12.4062 167.941 11.7148C167.262 11.0234 166.213 10.6777 164.795 10.6777H160.559V18.3594ZM186.697 32.3516C183.908 32.3516 181.635 31.4961 179.877 29.7852C178.131 28.0742 177.258 25.7949 177.258 22.9473V22.4551C177.258 20.5449 177.627 18.8398 178.365 17.3398C179.104 15.8281 180.146 14.668 181.494 13.8594C182.854 13.0391 184.4 12.6289 186.135 12.6289C188.736 12.6289 190.781 13.4492 192.27 15.0898C193.77 16.7305 194.52 19.0566 194.52 22.0684V24.1426H182.408C182.572 25.3848 183.064 26.3809 183.885 27.1309C184.717 27.8809 185.766 28.2559 187.031 28.2559C188.988 28.2559 190.518 27.5469 191.619 26.1289L194.115 28.9238C193.354 30.002 192.322 30.8457 191.021 31.4551C189.721 32.0527 188.279 32.3516 186.697 32.3516ZM186.117 16.7422C185.109 16.7422 184.289 17.082 183.656 17.7617C183.035 18.4414 182.637 19.4141 182.461 20.6797H189.527V20.2754C189.504 19.1504 189.199 18.2832 188.613 17.6738C188.027 17.0527 187.195 16.7422 186.117 16.7422ZM196.629 22.3496C196.629 19.3848 197.291 17.0234 198.615 15.2656C199.951 13.5078 201.773 12.6289 204.082 12.6289C205.934 12.6289 207.463 13.3203 208.67 14.7031V5H213.768V32H209.18L208.934 29.9785C207.668 31.5605 206.039 32.3516 204.047 32.3516C201.809 32.3516 200.01 31.4727 198.65 29.7148C197.303 27.9453 196.629 25.4902 196.629 22.3496ZM201.709 22.7188C201.709 24.5 202.02 25.8652 202.641 26.8145C203.262 27.7637 204.164 28.2383 205.348 28.2383C206.918 28.2383 208.025 27.5762 208.67 26.252V18.7461C208.037 17.4219 206.941 16.7598 205.383 16.7598C202.934 16.7598 201.709 18.7461 201.709 22.7188Z" fill="#E76F00"/>
<path d="M225.283 27.9121C225.283 27.429 225.042 27.0508 224.559 26.7773C224.085 26.4948 223.319 26.2441 222.262 26.0254C218.743 25.2871 216.984 23.7923 216.984 21.541C216.984 20.2285 217.527 19.1348 218.611 18.2598C219.705 17.3757 221.132 16.9336 222.891 16.9336C224.768 16.9336 226.268 17.3757 227.389 18.2598C228.519 19.1439 229.084 20.2923 229.084 21.7051H225.133C225.133 21.14 224.951 20.6751 224.586 20.3105C224.221 19.9368 223.652 19.75 222.877 19.75C222.212 19.75 221.697 19.9004 221.332 20.2012C220.967 20.502 220.785 20.8848 220.785 21.3496C220.785 21.7871 220.99 22.1426 221.4 22.416C221.82 22.6803 222.521 22.9128 223.506 23.1133C224.49 23.3047 225.32 23.5234 225.994 23.7695C228.081 24.5352 229.125 25.8613 229.125 27.748C229.125 29.097 228.546 30.1908 227.389 31.0293C226.231 31.8587 224.736 32.2734 222.904 32.2734C221.665 32.2734 220.562 32.0547 219.596 31.6172C218.639 31.1706 217.887 30.5645 217.34 29.7988C216.793 29.0241 216.52 28.1901 216.52 27.2969H220.266C220.302 27.9987 220.562 28.5365 221.045 28.9102C221.528 29.2839 222.175 29.4707 222.986 29.4707C223.743 29.4707 224.312 29.3294 224.695 29.0469C225.087 28.7552 225.283 28.377 225.283 27.9121ZM236.412 13.5703V17.207H238.941V20.1055H236.412V27.4883C236.412 28.0352 236.517 28.4271 236.727 28.6641C236.936 28.901 237.337 29.0195 237.93 29.0195C238.367 29.0195 238.755 28.9876 239.092 28.9238V31.918C238.317 32.1549 237.52 32.2734 236.699 32.2734C233.928 32.2734 232.516 30.8743 232.461 28.0762V20.1055H230.301V17.207H232.461V13.5703H236.412ZM240.117 24.4668C240.117 22.9993 240.4 21.6914 240.965 20.543C241.53 19.3945 242.341 18.5059 243.398 17.877C244.465 17.248 245.7 16.9336 247.104 16.9336C249.1 16.9336 250.727 17.5443 251.984 18.7656C253.251 19.987 253.958 21.6458 254.104 23.7422L254.131 24.7539C254.131 27.0234 253.497 28.8464 252.23 30.2227C250.964 31.5898 249.264 32.2734 247.131 32.2734C244.998 32.2734 243.294 31.5898 242.018 30.2227C240.751 28.8555 240.117 26.9961 240.117 24.6445V24.4668ZM244.068 24.7539C244.068 26.1576 244.333 27.2331 244.861 27.9805C245.39 28.7188 246.146 29.0879 247.131 29.0879C248.088 29.0879 248.835 28.7233 249.373 27.9941C249.911 27.2559 250.18 26.0801 250.18 24.4668C250.18 23.0905 249.911 22.0241 249.373 21.2676C248.835 20.5111 248.079 20.1328 247.104 20.1328C246.137 20.1328 245.39 20.5111 244.861 21.2676C244.333 22.015 244.068 23.1771 244.068 24.7539ZM260.201 17.207L260.324 18.916C261.382 17.5944 262.799 16.9336 264.576 16.9336C266.144 16.9336 267.311 17.3939 268.076 18.3145C268.842 19.235 269.234 20.6113 269.252 22.4434V32H265.301V22.5391C265.301 21.7005 265.118 21.0944 264.754 20.7207C264.389 20.3379 263.783 20.1465 262.936 20.1465C261.824 20.1465 260.99 20.6204 260.434 21.5684V32H256.482V17.207H260.201ZM279.068 32.2734C276.899 32.2734 275.131 31.6081 273.764 30.2773C272.406 28.9466 271.727 27.1738 271.727 24.959V24.5762C271.727 23.0905 272.014 21.7643 272.588 20.5977C273.162 19.4219 273.973 18.5195 275.021 17.8906C276.079 17.2526 277.282 16.9336 278.631 16.9336C280.654 16.9336 282.245 17.5716 283.402 18.8477C284.569 20.1237 285.152 21.9329 285.152 24.2754V25.8887H275.732C275.86 26.8548 276.243 27.6296 276.881 28.2129C277.528 28.7962 278.344 29.0879 279.328 29.0879C280.85 29.0879 282.04 28.5365 282.896 27.4336L284.838 29.6074C284.245 30.446 283.443 31.1022 282.432 31.5762C281.42 32.041 280.299 32.2734 279.068 32.2734ZM278.617 20.1328C277.833 20.1328 277.195 20.3971 276.703 20.9258C276.22 21.4544 275.91 22.2109 275.773 23.1953H281.27V22.8809C281.251 22.0059 281.014 21.3314 280.559 20.8574C280.103 20.3743 279.456 20.1328 278.617 20.1328Z" fill="#4D4F57"/>
<g filter="url(#filter1_i)">
<path d="M164.629 44.3594H157.998V51H156.797V36.7812H165.605V37.8066H157.998V43.334H164.629V44.3594ZM169.512 51H168.311V36.7812H169.512V51ZM183.965 51H182.764L174.59 38.832V51H173.379V36.7812H174.59L182.773 48.959V36.7812H183.965V51ZM187.578 51V36.7812H191.553C192.718 36.7812 193.763 37.0482 194.688 37.582C195.612 38.1094 196.331 38.8678 196.846 39.8574C197.367 40.847 197.627 41.9733 197.627 43.2363V44.5449C197.627 45.8145 197.37 46.9408 196.855 47.9238C196.341 48.9069 195.615 49.6654 194.678 50.1992C193.747 50.7331 192.676 51 191.465 51H187.578ZM188.779 37.8066V49.9844H191.475C192.972 49.9844 194.173 49.4896 195.078 48.5C195.983 47.5039 196.436 46.1595 196.436 44.4668V43.2168C196.436 41.5827 195.99 40.2741 195.098 39.291C194.206 38.3079 193.031 37.8132 191.572 37.8066H188.779ZM210.859 45.082H206.729V51H205.518V36.7812H210.137C211.654 36.7812 212.839 37.1491 213.691 37.8848C214.544 38.6204 214.971 39.6491 214.971 40.9707C214.971 41.8822 214.704 42.6862 214.17 43.3828C213.636 44.0794 212.92 44.5612 212.021 44.8281L215.576 50.873V51H214.297L210.859 45.082ZM206.729 44.0566H210.41C211.419 44.0566 212.23 43.7702 212.842 43.1973C213.454 42.6243 213.76 41.8822 213.76 40.9707C213.76 39.9681 213.441 39.1901 212.803 38.6367C212.165 38.0833 211.27 37.8066 210.117 37.8066H206.729V44.0566ZM228.75 44.6621C228.75 45.9707 228.522 47.1198 228.066 48.1094C227.617 49.099 226.973 49.8607 226.133 50.3945C225.293 50.9284 224.323 51.1953 223.223 51.1953C221.562 51.1953 220.221 50.6029 219.199 49.418C218.177 48.2266 217.666 46.6217 217.666 44.6035V43.1387C217.666 41.8431 217.894 40.6973 218.35 39.7012C218.812 38.6986 219.463 37.9303 220.303 37.3965C221.143 36.8561 222.109 36.5859 223.203 36.5859C224.297 36.5859 225.26 36.8496 226.094 37.377C226.934 37.9043 227.581 38.6497 228.037 39.6133C228.493 40.5768 228.73 41.6934 228.75 42.9629V44.6621ZM227.549 43.1191C227.549 41.4069 227.161 40.0658 226.387 39.0957C225.612 38.1257 224.551 37.6406 223.203 37.6406C221.882 37.6406 220.827 38.1289 220.039 39.1055C219.258 40.0755 218.867 41.4329 218.867 43.1777V44.6621C218.867 46.3483 219.258 47.6862 220.039 48.6758C220.82 49.6589 221.882 50.1504 223.223 50.1504C224.583 50.1504 225.645 49.6654 226.406 48.6953C227.168 47.7188 227.549 46.3613 227.549 44.623V43.1191ZM242.285 44.6621C242.285 45.9707 242.057 47.1198 241.602 48.1094C241.152 49.099 240.508 49.8607 239.668 50.3945C238.828 50.9284 237.858 51.1953 236.758 51.1953C235.098 51.1953 233.757 50.6029 232.734 49.418C231.712 48.2266 231.201 46.6217 231.201 44.6035V43.1387C231.201 41.8431 231.429 40.6973 231.885 39.7012C232.347 38.6986 232.998 37.9303 233.838 37.3965C234.678 36.8561 235.645 36.5859 236.738 36.5859C237.832 36.5859 238.796 36.8496 239.629 37.377C240.469 37.9043 241.117 38.6497 241.572 39.6133C242.028 40.5768 242.266 41.6934 242.285 42.9629V44.6621ZM241.084 43.1191C241.084 41.4069 240.697 40.0658 239.922 39.0957C239.147 38.1257 238.086 37.6406 236.738 37.6406C235.417 37.6406 234.362 38.1289 233.574 39.1055C232.793 40.0755 232.402 41.4329 232.402 43.1777V44.6621C232.402 46.3483 232.793 47.6862 233.574 48.6758C234.355 49.6589 235.417 50.1504 236.758 50.1504C238.118 50.1504 239.18 49.6654 239.941 48.6953C240.703 47.7188 241.084 46.3613 241.084 44.623V43.1191ZM246.904 36.7812L252.148 49.3301L257.412 36.7812H259.014V51H257.812V44.8086L257.91 38.4609L252.617 51H251.689L246.416 38.5098L246.514 44.7695V51H245.312V36.7812H246.904ZM270.664 47.5039C270.664 46.7161 270.387 46.0944 269.834 45.6387C269.281 45.1764 268.268 44.7402 266.797 44.3301C265.326 43.9134 264.251 43.4609 263.574 42.9727C262.611 42.2826 262.129 41.3776 262.129 40.2578C262.129 39.1706 262.575 38.2884 263.467 37.6113C264.365 36.9277 265.511 36.5859 266.904 36.5859C267.848 36.5859 268.691 36.7682 269.434 37.1328C270.182 37.4974 270.762 38.0052 271.172 38.6562C271.582 39.3073 271.787 40.0332 271.787 40.834H270.576C270.576 39.8639 270.244 39.0859 269.58 38.5C268.916 37.9076 268.024 37.6113 266.904 37.6113C265.817 37.6113 264.951 37.8555 264.307 38.3438C263.662 38.8255 263.34 39.457 263.34 40.2383C263.34 40.9609 263.63 41.5501 264.209 42.0059C264.788 42.4616 265.716 42.8652 266.992 43.2168C268.268 43.5618 269.235 43.9232 269.893 44.3008C270.55 44.6719 271.045 45.1178 271.377 45.6387C271.709 46.1595 271.875 46.7747 271.875 47.4844C271.875 48.6042 271.426 49.5026 270.527 50.1797C269.635 50.8568 268.457 51.1953 266.992 51.1953C265.99 51.1953 265.068 51.0163 264.229 50.6582C263.395 50.3001 262.76 49.7988 262.324 49.1543C261.895 48.5098 261.68 47.7708 261.68 46.9375H262.881C262.881 47.9401 263.255 48.7311 264.004 49.3105C264.753 49.89 265.749 50.1797 266.992 50.1797C268.099 50.1797 268.988 49.9355 269.658 49.4473C270.329 48.959 270.664 48.3112 270.664 47.5039Z" fill="#FFFDFD"/>
</g>
<defs>
<filter id="filter0_d" x="74" y="0" width="67" height="63" filterUnits="userSpaceOnUse" color-interpolation-filters="sRGB">
<feFlood flood-opacity="0" result="BackgroundImageFix"/>
<feColorMatrix in="SourceAlpha" type="matrix" values="0 0 0 0 0 0 0 0 0 0 0 0 0 0 0 0 0 0 127 0"/>
<feOffset dy="4"/>
<feGaussianBlur stdDeviation="2"/>
<feColorMatrix type="matrix" values="0 0 0 0 0 0 0 0 0 0 0 0 0 0 0 0 0 0 0.25 0"/>
<feBlend mode="normal" in2="BackgroundImageFix" result="effect1_dropShadow"/>
<feBlend mode="normal" in="SourceGraphic" in2="effect1_dropShadow" result="shape"/>
</filter>
<filter id="filter1_i" x="156.797" y="36.5859" width="115.078" height="18.6094" filterUnits="userSpaceOnUse" color-interpolation-filters="sRGB">
<feFlood flood-opacity="0" result="BackgroundImageFix"/>
<feBlend mode="normal" in="SourceGraphic" in2="BackgroundImageFix" result="shape"/>
<feColorMatrix in="SourceAlpha" type="matrix" values="0 0 0 0 0 0 0 0 0 0 0 0 0 0 0 0 0 0 127 0" result="hardAlpha"/>
<feOffset dy="4"/>
<feGaussianBlur stdDeviation="2"/>
<feComposite in2="hardAlpha" operator="arithmetic" k2="-1" k3="1"/>
<feColorMatrix type="matrix" values="0 0 0 0 0 0 0 0 0 0 0 0 0 0 0 0 0 0 0.25 0"/>
<feBlend mode="normal" in2="shape" result="effect1_innerShadow"/>
</filter>
</defs>
</svg>
